<svg width="519" height="494" viewBox="0 0 519 494" fill="none" xmlns="http://www.w3.org/2000/svg">
<path d="M405.383 145.166L479.888 11L312.685 33.3163C185.48 46.4689 110.519 87.3833 88.9396 106.196C24.515 162.608 17.2439 255.697 21.6614 295.191C33.5771 390.492 108.636 443.864 144.676 458.638C228.971 494.288 309.399 466.52 339.077 448.179C400.74 410.712 430.628 346.975 437.864 319.79C455.597 233.593 423.599 167.458 405.383 145.166Z" fill="#D81F26" stroke="white" stroke-width="10"/>
<path d="M384.725 182.642C365.344 198.598 316.196 232.795 274.651 241.932C297.396 288.613 412.507 299.291 384.725 182.642Z" fill="white"/>
<path d="M77.8801 181.162C96.9628 197.473 145.47 232.573 186.839 242.477C163.235 288.729 47.9456 297.277 77.8801 181.162Z" fill="white"/>
<path d="M248.464 256.782C243.071 250.467 228.574 241.627 213.734 256.782C219.523 262.833 234.572 271.305 248.464 256.782Z" fill="white"/>
<path d="M105.52 302.087L78.8011 354.964C77.9674 356.614 79.6265 358.415 81.3391 357.719L152.576 328.77C153.892 328.235 155.329 329.203 155.329 330.623V416.236C155.329 418.047 157.543 418.925 158.785 417.608L228.972 343.138C229.776 342.285 231.137 342.303 231.918 343.176L298.307 417.373C299.531 418.741 301.798 417.875 301.798 416.039V330.556C301.798 329.154 303.202 328.187 304.511 328.687L381.413 358.052C383.06 358.681 384.657 357.025 383.967 355.402L361.322 302.087" stroke="white" stroke-width="13"/>
</svg>
