<svg width="472" height="515" viewBox="0 0 472 515" fill="none" xmlns="http://www.w3.org/2000/svg">
<path d="M166.214 59.4032V84.2026C49.9458 128.034 25.4925 237.805 27.7994 287.211C37.0271 396.559 110.464 453.117 146.029 467.728C252.609 509.714 331.159 472.918 357.112 449.272C428.165 401.408 445.159 312.061 444.775 273.37C437.393 156.178 357.112 106.695 311.55 84.2026V59.4032C435.663 105.542 468.229 221.272 468.998 273.37C469.459 376.72 404.212 448.311 371.53 471.188C283.867 530.707 179.287 510.598 137.955 493.104C31.3751 434.97 3.57673 331.62 3 287.211C7.61384 137.723 113.732 73.0525 166.214 59.4032Z" fill="white" stroke="white" stroke-width="6"/>
<path d="M262.512 270.87C236.059 275.419 239.779 206.598 244.945 171.62C234.612 183.612 221.695 218.66 221.695 218.66C221.695 218.66 209.295 252.777 209.295 285.861C209.295 318.944 217.562 327.387 221.695 333.935C232.855 353.785 224.967 352.544 219.628 349.443C216.735 347.788 208.778 338.415 205.161 333.935C194.001 316.566 189.833 290.513 189.145 279.657C187.491 262.289 196.378 232.789 201.028 220.211C210.535 202.015 232.029 157.663 238.745 134.918C245.462 112.173 241.501 79.0898 238.745 67.2005C230.479 33.6002 216.012 10.5108 205.678 0C209.812 4.54896 213.6 18.0924 214.978 24.2956C221.178 55.7247 216.184 80.4683 212.912 88.9114C200.511 116.619 179.844 145.601 171.061 156.629C134.274 202.118 114.399 248.642 109.06 266.217C96.6599 297.233 102.515 341.172 106.993 359.264C114.433 390.28 129.727 406.821 154.527 429.566C179.328 452.311 217.89 464.2 264.579 456.963C321.93 441.456 347.769 399.584 353.447 389.763C359.124 379.941 371.53 351.51 371.53 330.833C371.53 310.156 367.914 294.648 365.33 286.894C362.747 279.14 333.813 227.792 320.896 211.423C308.083 195.708 288.001 146.98 279.562 124.579C272.949 103.075 271.985 74.6098 272.329 63.0651C256.209 109.795 261.134 154.906 265.612 171.62C289.999 250.193 273.707 270.525 262.512 270.87Z" fill="#D81F26"/>
</svg>
