<svg width="673" height="136" viewBox="0 0 673 136" fill="none" xmlns="http://www.w3.org/2000/svg">
<path d="M183.763 95.193H157.12L153.161 106H138.181L169.746 30.137H170.816L202.488 106H187.936L183.763 95.193ZM179.804 84.814L171.993 64.484L170.174 58.492L168.462 64.484L160.972 84.814H179.804ZM236.983 51.43C242.297 51.43 246.292 53.1242 248.967 56.5125C251.678 59.8652 253.033 64.6267 253.033 70.797V106H239.337V71.974C239.337 68.9423 238.695 66.5348 237.411 64.7515C236.127 62.9325 234.237 62.023 231.74 62.023C230.064 62.023 228.494 62.451 227.032 63.307C225.605 64.163 224.464 65.3578 223.608 66.8915C222.752 68.3895 222.324 70.0837 222.324 71.974V106H208.628V52.714H221.04L221.307 59.7225C224.981 54.1942 230.206 51.43 236.983 51.43ZM267.969 29.816H282.949V44.047H267.969V29.816ZM268.504 52.714H282.414V106H268.504V52.714ZM357.665 51.43C362.908 51.43 366.867 53.1242 369.542 56.5125C372.252 59.8652 373.608 64.6267 373.608 70.797V106H360.019V72.188C360.019 69.085 359.412 66.6597 358.2 64.912C357.023 63.1287 355.204 62.237 352.743 62.237C351.066 62.237 349.461 62.665 347.928 63.521C346.43 64.377 345.217 65.5718 344.29 67.1055C343.362 68.6035 342.899 70.2977 342.899 72.188V106H329.203V72.188C329.203 69.1563 328.525 66.7132 327.17 64.8585C325.85 62.9682 323.96 62.023 321.499 62.023C319.787 62.023 318.217 62.4688 316.791 63.3605C315.364 64.2165 314.223 65.4292 313.367 66.9985C312.511 68.5322 312.083 70.262 312.083 72.188V106H298.387V52.714H310.692L311.013 59.776C314.615 54.212 319.858 51.43 326.742 51.43C330.308 51.43 333.287 52.2147 335.676 53.784C338.102 55.3533 339.921 57.636 341.133 60.632C344.771 54.4973 350.282 51.43 357.665 51.43ZM410.595 107.391C404.853 107.391 400.109 106.178 396.364 103.753C392.619 101.292 389.873 98.0107 388.125 93.909C386.413 89.8073 385.557 85.1707 385.557 79.999C385.557 74.7203 386.52 69.9232 388.446 65.6075C390.408 61.2562 393.261 57.8143 397.006 55.282C400.751 52.714 405.21 51.43 410.381 51.43C418.085 51.43 423.596 53.6592 426.913 58.1175C430.23 62.5402 431.888 69.1563 431.888 77.966C431.888 79.678 431.817 81.604 431.674 83.744H399.574C399.788 88.0597 400.983 91.3945 403.159 93.7485C405.37 96.0668 408.598 97.226 412.842 97.226C415.054 97.226 417.426 96.7445 419.958 95.7815C422.49 94.7828 424.363 93.588 425.575 92.197L429.855 102.362C424.826 105.715 418.406 107.391 410.595 107.391ZM418.299 75.398C418.299 70.155 417.64 66.5527 416.32 64.591C415.036 62.5937 413.163 61.595 410.702 61.595C407.243 61.595 404.55 62.879 402.624 65.447C400.734 68.015 399.681 71.332 399.467 75.398H418.299Z" fill="#EE202A"/>
<path d="M499.679 65.982C500.107 70.4047 500.321 73.8643 500.321 76.361C500.321 85.8483 498.252 93.481 494.115 99.259C489.977 105.037 482.523 107.926 471.752 107.926C465.76 107.926 460.392 106.339 455.648 103.164C450.94 99.9902 447.231 95.407 444.52 89.415C441.845 83.3873 440.508 76.254 440.508 68.015C440.508 60.7033 441.917 54.1763 444.734 48.434C447.552 42.6917 451.457 38.2155 456.451 35.0055C461.48 31.7598 467.186 30.137 473.571 30.137C477.922 30.137 481.524 30.4758 484.378 31.1535C487.267 31.8312 489.496 32.6337 491.065 33.561C492.635 34.4883 494.043 35.5583 495.292 36.771L489.407 48.648C486.446 44.7247 481.239 42.763 473.785 42.763C470.218 42.763 466.99 43.8152 464.101 45.9195C461.212 48.0238 458.947 50.9663 457.307 54.747C455.666 58.5277 454.846 62.8433 454.846 67.694C454.846 73.5433 455.541 78.608 456.932 82.888C458.359 87.1323 460.356 90.378 462.924 92.625C465.528 94.8363 468.542 95.942 471.966 95.942C477.351 95.942 481.221 94.6758 483.575 92.1435C485.965 89.6112 487.16 85.777 487.16 80.641C487.16 80.0703 487.124 79.1073 487.053 77.752H471.752V65.982H499.679ZM532.946 107.07C527.738 107.07 523.298 105.964 519.624 103.753C515.951 101.542 513.151 98.3673 511.225 94.23C509.299 90.057 508.336 85.0637 508.336 79.25C508.336 73.4363 509.317 68.443 511.278 64.27C513.276 60.097 516.147 56.9227 519.892 54.747C523.672 52.5357 528.166 51.43 533.374 51.43C538.545 51.43 542.932 52.5713 546.535 54.854C550.173 57.101 552.919 60.311 554.774 64.484C556.628 68.657 557.556 73.579 557.556 79.25C557.556 84.8853 556.593 89.8073 554.667 94.016C552.741 98.189 549.923 101.417 546.214 103.699C542.54 105.947 538.117 107.07 532.946 107.07ZM533.16 96.37C536.477 96.37 538.991 94.9255 540.703 92.0365C542.451 89.1475 543.325 84.8853 543.325 79.25C543.325 73.579 542.451 69.299 540.703 66.41C538.991 63.4853 536.477 62.023 533.16 62.023C529.664 62.023 527.025 63.3962 525.242 66.1425C523.458 68.8888 522.567 73.258 522.567 79.25C522.567 85.242 523.458 89.5933 525.242 92.304C527.025 95.0147 529.664 96.37 533.16 96.37ZM584.086 96.263H606.021V106H563.435L587.563 62.879H567.929V52.714H608.161L584.086 96.263ZM659.771 52.714V106H647.68L647.412 99.0985C645.843 101.559 643.899 103.539 641.581 105.037C639.298 106.535 636.374 107.284 632.807 107.284C627.528 107.284 623.587 105.608 620.983 102.255C618.38 98.9023 617.078 94.123 617.078 87.917V52.714H630.453V86.74C630.453 89.843 631.006 92.2862 632.111 94.0695C633.253 95.8172 635.054 96.691 637.515 96.691C639.191 96.691 640.689 96.2808 642.009 95.4605C643.364 94.6045 644.434 93.4275 645.219 91.9295C646.004 90.3958 646.396 88.666 646.396 86.74V52.714H659.771Z" fill="white"/>
<path d="M44.7407 15.5558V22.05C14.2936 33.5281 7.89007 62.2736 8.49418 75.2116C10.9106 103.846 30.1414 118.657 39.4548 122.483C67.3646 133.478 87.9346 123.842 94.7308 117.65C113.337 105.116 117.788 81.7189 117.687 71.587C115.754 40.8982 94.7308 27.9401 82.7996 22.05V15.5558C115.301 27.638 123.829 57.9442 124.03 71.587C124.151 98.6511 107.065 117.399 98.5065 123.389C75.5503 138.975 48.164 133.71 37.3404 129.128C9.43055 113.905 2.15103 86.8407 2 75.2116C3.20822 36.0653 30.9973 19.1301 44.7407 15.5558Z" fill="white" stroke="white" stroke-width="3"/>
<path d="M69.9581 70.9322C63.0307 72.1235 64.0048 54.1016 65.3579 44.9418C62.6518 48.0823 59.2693 57.2602 59.2693 57.2602C59.2693 57.2602 56.0221 66.1944 56.0221 74.8579C56.0221 83.5213 58.1869 85.7323 59.2693 87.447C62.1918 92.6451 60.1262 92.3202 58.7281 91.508C57.9704 91.0748 55.8868 88.6202 54.9397 87.447C52.0172 82.8987 50.9258 76.0762 50.7454 73.2335C50.3124 68.6851 52.6396 60.9602 53.8573 57.6663C56.3468 52.9014 61.9753 41.2869 63.7342 35.3307C65.4932 29.3746 64.4559 20.7111 63.7342 17.5977C61.5694 8.79885 57.781 2.75246 55.075 0C56.1574 1.19123 57.1496 4.73784 57.5104 6.36224C59.134 14.5925 57.8261 21.0721 56.9692 23.2831C53.722 30.5388 48.31 38.1283 46.0099 41.0162C36.3765 52.9284 31.1719 65.1115 29.7738 69.7139C26.5266 77.8359 28.06 89.3421 29.2326 94.08C31.1809 102.202 35.1858 106.534 41.6802 112.49C48.1747 118.446 58.273 121.559 70.4992 119.664C85.5176 115.603 92.2841 104.639 93.771 102.067C95.2578 99.4946 98.5065 92.0495 98.5065 86.6348C98.5065 81.2201 97.5594 77.1591 96.8829 75.1286C96.2063 73.0981 88.6295 59.6517 85.247 55.365C81.8916 51.2499 76.6329 38.4893 74.423 32.6234C72.6911 26.9922 72.4386 19.538 72.5288 16.5148C68.3074 28.7519 69.5972 40.5649 70.7698 44.9418C77.156 65.5176 72.8896 70.842 69.9581 70.9322Z" fill="#D81F26"/>
</svg>
