<svg width="726" height="175" viewBox="0 0 726 175" fill="none" xmlns="http://www.w3.org/2000/svg">
<path d="M227.16 133.6C225.16 133.92 222.96 134.28 220.56 134.68C218.16 135.08 216 135.44 214.08 135.76C214.4 133.12 214.72 130.52 215.04 127.96C215.28 125.72 215.48 123.48 215.64 121.24C215.88 119 216.08 117.08 216.24 115.48H205.8L201 132.76C199.24 133 197.16 133.28 194.76 133.6C192.36 133.84 190.12 134.08 188.04 134.32C185.48 134.64 182.96 134.96 180.48 135.28C183.68 124.64 186.84 114.16 189.96 103.84C191.24 99.52 192.56 95 193.92 90.28C195.36 85.56 196.76 80.88 198.12 76.24C199.56 71.52 200.92 67 202.2 62.68C203.48 58.36 204.6 54.4 205.56 50.8C211 50.4 216.52 49.92 222.12 49.36C227.8 48.8 233.32 48.04 238.68 47.08C238.44 49.64 238.16 52.84 237.84 56.68C237.6 60.44 237.36 64.56 237.12 69.04C236.88 73.52 236.64 78.2 236.4 83.08C236.16 87.96 235.92 92.76 235.68 97.48C235.28 108.52 234.84 120.24 234.36 132.64C231.96 133.04 229.56 133.36 227.16 133.6ZM208.68 103.48C209 103.48 209.56 103.48 210.36 103.48C211.24 103.4 212.12 103.36 213 103.36C213.96 103.28 214.84 103.24 215.64 103.24C216.44 103.16 217 103.08 217.32 103C217.32 102.52 217.36 101.72 217.44 100.6C217.6 99.4 217.72 98.08 217.8 96.64C217.96 95.12 218.12 93.48 218.28 91.72C218.44 89.96 218.6 88.24 218.76 86.56C219.08 82.48 219.48 78.08 219.96 73.36L220.68 62.92L218.88 63.04L216.12 73.36L208.68 103.48ZM235.514 136.6C237.914 125.08 240.194 113.92 242.354 103.12C243.154 98.48 243.994 93.68 244.874 88.72C245.834 83.76 246.714 78.88 247.514 74.08C248.314 69.2 249.034 64.56 249.674 60.16C250.314 55.68 250.794 51.64 251.114 48.04C252.154 48.12 253.034 48.16 253.754 48.16C254.474 48.16 255.314 48.16 256.274 48.16C257.394 48.16 258.754 48.16 260.354 48.16C261.954 48.08 263.554 48 265.154 47.92C266.754 47.84 268.474 47.76 270.314 47.68C271.434 53.28 272.434 58.68 273.314 63.88C274.194 68.44 275.074 73.12 275.954 77.92C276.914 82.72 277.754 86.8 278.474 90.16C278.794 88.56 279.154 86.72 279.554 84.64C279.954 82.48 280.394 80.24 280.874 77.92C281.354 75.6 281.794 73.28 282.194 70.96C282.674 68.56 283.154 66.2 283.634 63.88C284.754 58.68 285.914 53.32 287.114 47.8L301.754 46C299.034 58.24 296.634 69.84 294.554 80.8C293.594 85.52 292.634 90.32 291.674 95.2C290.794 100 289.954 104.64 289.154 109.12C288.354 113.52 287.674 117.64 287.114 121.48C286.554 125.24 286.114 128.4 285.794 130.96C285.554 130.96 284.594 131.16 282.914 131.56C281.314 131.88 279.434 132.28 277.274 132.76C275.194 133.24 273.074 133.72 270.914 134.2C268.834 134.68 267.274 135.12 266.234 135.52C265.754 129.12 265.234 123.04 264.674 117.28C264.434 114.8 264.154 112.28 263.834 109.72C263.594 107.08 263.314 104.56 262.994 102.16C262.674 99.76 262.354 97.52 262.034 95.44C261.714 93.36 261.394 91.56 261.074 90.04C260.834 91.56 260.514 93.32 260.114 95.32C259.714 97.32 259.314 99.44 258.914 101.68C258.514 103.92 258.114 106.28 257.714 108.76C257.314 111.16 256.874 113.48 256.394 115.72C255.354 121.08 254.234 126.68 253.034 132.52L235.514 136.6ZM309.572 133.6C308.852 133.6 307.412 133.72 305.252 133.96C303.172 134.12 301.012 134.36 298.772 134.68C296.532 134.92 294.492 135.16 292.652 135.4C290.892 135.64 289.932 135.8 289.772 135.88C290.572 132.44 291.372 128.64 292.172 124.48C293.052 120.24 293.932 115.84 294.812 111.28C295.692 106.64 296.532 101.96 297.332 97.24C298.132 92.52 298.892 87.96 299.612 83.56C301.292 73.32 302.972 62.8 304.652 52L323.372 49C321.532 59.72 319.732 70.24 317.972 80.56C317.252 84.96 316.492 89.52 315.692 94.24C314.972 98.96 314.212 103.64 313.412 108.28C312.692 112.92 312.012 117.44 311.372 121.84C310.732 126.16 310.132 130.08 309.572 133.6ZM309.83 135.28C313.35 124.64 316.71 114.2 319.91 103.96C321.27 99.64 322.67 95.12 324.11 90.4C325.55 85.68 326.99 81 328.43 76.36C329.87 71.72 331.19 67.24 332.39 62.92C333.67 58.6 334.79 54.6 335.75 50.92C340.15 50.92 344.31 50.68 348.23 50.2C352.15 49.72 356.39 49.28 360.95 48.88C360.71 50.64 360.43 52.64 360.11 54.88C359.87 57.04 359.55 59.32 359.15 61.72C358.83 64.12 358.47 66.6 358.07 69.16C357.67 71.72 357.19 75 356.63 79C356.07 83 355.31 88 354.35 94H355.91C358.23 87.92 360.15 82.88 361.67 78.88C363.19 74.8 364.43 71.48 365.39 68.92C366.35 66.36 367.31 63.88 368.27 61.48C369.31 59 370.27 56.68 371.15 54.52C372.11 52.28 372.99 50.32 373.79 48.64C375.79 48.48 377.67 48.28 379.43 48.04C381.19 47.8 382.95 47.56 384.71 47.32C386.47 47 388.23 46.72 389.99 46.48C391.83 46.16 393.83 45.8 395.99 45.4C395.19 50.04 394.43 54.8 393.71 59.68C392.99 64.56 392.35 69.44 391.79 74.32C391.23 79.12 390.67 83.88 390.11 88.6C389.63 93.32 389.19 97.8 388.79 102.04C387.83 111.96 386.99 121.64 386.27 131.08L365.39 134.8C365.39 134.4 365.43 133.32 365.51 131.56C365.67 129.8 365.83 127.64 365.99 125.08C366.23 122.52 366.51 119.68 366.83 116.56C367.23 113.44 367.59 110.32 367.91 107.2C368.31 104.08 368.71 101.08 369.11 98.2C369.51 95.24 369.91 92.72 370.31 90.64H369.23C368.11 94 366.87 97.56 365.51 101.32C364.15 105 362.75 108.76 361.31 112.6C359.95 116.44 358.59 120.2 357.23 123.88C355.87 127.56 354.67 131.08 353.63 134.44C350.83 134.52 348.43 134.64 346.43 134.8C344.43 134.88 342.11 135 339.47 135.16L343.31 90.64H341.51C341.35 91.68 340.95 93.44 340.31 95.92C339.67 98.32 338.91 101.12 338.03 104.32C337.23 107.44 336.35 110.72 335.39 114.16C334.43 117.52 333.51 120.68 332.63 123.64C331.83 126.52 331.15 128.92 330.59 130.84C330.03 132.68 329.71 133.72 329.63 133.96L309.83 135.28ZM388.687 136.12L404.407 50.8L442.327 47.56C441.767 49.32 441.287 51.12 440.887 52.96C440.487 54.48 440.087 56.08 439.687 57.76C439.367 59.36 439.087 60.8 438.847 62.08C438.047 62.16 436.887 62.24 435.367 62.32C433.927 62.32 432.367 62.36 430.687 62.44C429.007 62.44 427.287 62.44 425.527 62.44C423.847 62.44 422.367 62.44 421.087 62.44L416.887 83.92C419.367 83.76 421.687 83.64 423.847 83.56C425.607 83.48 427.407 83.44 429.247 83.44C431.087 83.44 432.447 83.4 433.327 83.32C433.007 85.56 432.687 87.76 432.367 89.92C432.127 92.08 431.807 94.28 431.407 96.52C430.607 96.6 429.287 96.68 427.447 96.76C425.687 96.76 423.887 96.8 422.047 96.88C419.967 96.96 417.687 97.04 415.207 97.12L411.127 119.2L428.647 116.44L427.447 130.12L388.687 136.12ZM481.785 106.36C481.785 110.84 480.905 114.92 479.145 118.6C477.465 122.2 475.145 125.32 472.185 127.96C469.305 130.6 465.865 132.64 461.865 134.08C457.945 135.52 453.705 136.24 449.145 136.24C445.945 136.24 442.745 135.4 439.545 133.72C436.345 131.96 433.265 129.2 430.305 125.44L439.185 108.04C439.745 109.08 440.585 110.16 441.705 111.28C442.825 112.32 444.065 113.24 445.425 114.04C446.865 114.84 448.265 115.52 449.625 116.08C451.065 116.56 452.345 116.8 453.465 116.8C454.425 116.8 455.425 116.64 456.465 116.32C457.505 116 458.465 115.52 459.345 114.88C460.225 114.24 460.905 113.52 461.385 112.72C461.945 111.84 462.225 110.84 462.225 109.72C462.225 107.8 461.585 106.04 460.305 104.44C459.105 102.76 457.585 101.2 455.745 99.76C453.905 98.24 451.905 96.72 449.745 95.2C447.585 93.68 445.585 92.08 443.745 90.4C441.985 88.72 440.465 86.84 439.185 84.76C437.905 82.68 437.265 80.36 437.265 77.8C437.265 73.64 438.505 69.76 440.985 66.16C443.465 62.56 446.545 59.48 450.225 56.92C453.985 54.28 458.065 52.2 462.465 50.68C466.865 49.16 471.025 48.4 474.945 48.4C477.105 48.4 479.145 48.68 481.065 49.24C482.985 49.72 484.625 50.56 485.985 51.76C487.425 52.88 488.545 54.32 489.345 56.08C490.225 57.84 490.665 60.04 490.665 62.68C490.665 63.8 490.545 64.92 490.305 66.04C490.145 67.16 489.985 68.36 489.825 69.64L472.425 74.68C472.585 74.04 472.705 73.4 472.785 72.76C472.945 72.12 473.025 71.48 473.025 70.84C473.025 68.44 472.585 66.72 471.705 65.68C470.905 64.56 469.825 64 468.465 64C467.825 64 467.025 64.24 466.065 64.72C465.185 65.2 464.265 65.84 463.305 66.64C462.425 67.36 461.665 68.24 461.025 69.28C460.385 70.32 460.065 71.44 460.065 72.64C460.065 74.56 460.585 76.16 461.625 77.44C462.745 78.72 464.105 79.92 465.705 81.04C467.305 82.16 469.025 83.32 470.865 84.52C472.785 85.64 474.545 87.12 476.145 88.96C477.745 90.8 479.065 93.12 480.105 95.92C481.225 98.64 481.785 102.12 481.785 106.36Z" fill="#EE202A"/>
<path d="M545.468 90.28C544.908 98.44 543.308 105.56 540.668 111.64C538.028 117.64 534.828 122.68 531.068 126.76C527.388 130.84 523.388 133.88 519.068 135.88C514.828 137.88 510.788 138.88 506.948 138.88C503.988 138.88 501.148 138.24 498.428 136.96C495.788 135.68 493.468 133.76 491.468 131.2C489.548 128.56 488.028 125.28 486.908 121.36C485.788 117.44 485.228 112.84 485.228 107.56C485.228 97.24 486.708 88.24 489.668 80.56C492.628 72.88 496.348 66.48 500.828 61.36C505.388 56.24 510.228 52.44 515.348 49.96C520.548 47.48 525.388 46.24 529.868 46.24C533.068 46.24 535.828 46.8 538.148 47.92C540.548 49.04 542.508 50.56 544.028 52.48C545.548 54.32 546.628 56.52 547.268 59.08C547.988 61.56 548.348 64.2 548.348 67L531.908 70.12C531.188 66.92 530.228 64.64 529.028 63.28C527.828 61.92 526.468 61.24 524.948 61.24C522.948 61.24 520.748 62.68 518.348 65.56C515.948 68.36 513.708 72 511.628 76.48C509.548 80.96 507.788 85.88 506.348 91.24C504.908 96.6 504.108 101.88 503.948 107.08C503.948 112.04 504.668 115.6 506.108 117.76C507.628 119.84 509.548 120.88 511.867 120.88C513.468 120.88 515.108 120.48 516.788 119.68C518.548 118.88 520.108 117.76 521.468 116.32C522.828 114.8 523.948 113.08 524.828 111.16C525.788 109.16 526.308 107 526.388 104.68L513.548 106.6L515.828 94.72C519.588 94.24 523.268 93.76 526.868 93.28C529.908 92.88 533.108 92.4 536.468 91.84C539.908 91.28 542.908 90.76 545.468 90.28ZM607.27 71.08C607.27 77.64 606.55 83.84 605.11 89.68C603.75 95.44 601.91 100.76 599.59 105.64C597.27 110.44 594.55 114.76 591.43 118.6C588.39 122.36 585.19 125.6 581.83 128.32C578.47 130.96 575.07 133 571.63 134.44C568.19 135.8 564.91 136.48 561.79 136.48C559.15 136.48 556.75 136 554.59 135.04C552.43 134 550.55 132.52 548.95 130.6C547.35 128.6 546.07 126.08 545.11 123.04C544.23 119.92 543.79 116.2 543.79 111.88C543.79 107.4 544.35 102.68 545.47 97.72C546.59 92.76 548.11 87.84 550.03 82.96C551.95 78.08 554.31 73.44 557.11 69.04C559.91 64.64 562.99 60.76 566.35 57.4C569.71 53.96 573.31 51.24 577.15 49.24C580.99 47.24 584.99 46.24 589.15 46.24C592.75 46.24 595.71 47 598.03 48.52C600.43 49.96 602.27 51.88 603.55 54.28C604.91 56.6 605.87 59.24 606.43 62.2C606.99 65.16 607.27 68.12 607.27 71.08ZM561.67 108.76C561.67 109.64 561.83 110.56 562.15 111.52C562.47 112.48 562.91 113.32 563.47 114.04C564.03 114.76 564.71 115.4 565.51 115.96C566.39 116.44 567.31 116.68 568.27 116.68C571.87 116.68 575.07 115.44 577.87 112.96C580.67 110.48 582.99 107.44 584.83 103.84C586.67 100.24 588.07 96.4 589.03 92.32C590.07 88.24 590.59 84.52 590.59 81.16C590.59 80.2 590.51 79.16 590.35 78.04C590.27 76.92 590.03 75.88 589.63 74.92C589.31 73.96 588.75 73.16 587.95 72.52C587.23 71.8 586.23 71.44 584.95 71.44C582.39 71.44 580.03 72.08 577.87 73.36C575.71 74.64 573.75 76.36 571.99 78.52C570.31 80.6 568.83 83 567.55 85.72C566.27 88.36 565.15 91.08 564.19 93.88C563.31 96.6 562.67 99.28 562.27 101.92C561.87 104.56 561.67 106.84 561.67 108.76ZM650.97 131.2C650.25 131.2 648.73 131.24 646.41 131.32C644.09 131.4 641.33 131.52 638.13 131.68C635.01 131.84 631.61 132.04 627.93 132.28C624.25 132.52 620.65 132.8 617.13 133.12C613.61 133.36 610.33 133.64 607.29 133.96C604.33 134.28 601.97 134.6 600.21 134.92L600.33 117.4L634.41 70.96C633.05 70.96 631.13 71.12 628.65 71.44C626.17 71.68 623.65 71.96 621.09 72.28C618.61 72.6 616.45 72.92 614.61 73.24L611.73 73.48L614.01 54.64L663.09 51.16L659.97 67.72L627.21 114.28C628.81 114.28 630.93 114.2 633.57 114.04C636.29 113.88 639.09 113.72 641.97 113.56C644.85 113.4 647.97 113.2 651.33 112.96L650.97 131.2ZM700.85 112.6C699.73 117.16 698.13 121.04 696.05 124.24C694.05 127.44 691.65 130.08 688.85 132.16C686.13 134.24 683.21 135.76 680.09 136.72C676.97 137.68 673.85 138.16 670.73 138.16C668.89 138.16 667.01 137.84 665.09 137.2C663.17 136.64 661.45 135.76 659.93 134.56C658.41 133.36 657.13 131.84 656.09 130C655.13 128.16 654.65 126 654.65 123.52C654.65 123.2 654.65 122.88 654.65 122.56C654.65 122.24 654.69 121.92 654.77 121.6C655.09 118.32 655.61 114.36 656.33 109.72C657.05 105.08 657.81 100.24 658.61 95.2C659.41 90.16 660.29 85.12 661.25 80.08C662.21 74.96 663.05 70.32 663.77 66.16C664.57 62 665.25 58.56 665.81 55.84C666.37 53.04 666.73 51.32 666.89 50.68C668.57 50.52 670.57 50.32 672.89 50.08C675.21 49.84 677.37 49.64 679.37 49.48C681.85 49.24 684.29 49 686.69 48.76C684.61 58.44 682.77 67.2 681.17 75.04C680.45 78.4 679.73 81.76 679.01 85.12C678.37 88.48 677.73 91.56 677.09 94.36C676.53 97.16 676.01 99.6 675.53 101.68C675.13 103.68 674.77 105.32 674.45 106.6C674.21 107.88 673.89 109.52 673.49 111.52C673.17 113.44 673.01 115.2 673.01 116.8C673.01 118.08 673.33 119.16 673.97 120.04C674.61 120.84 675.41 121.24 676.37 121.24C677.73 121.24 678.85 120.72 679.73 119.68C680.61 118.56 681.33 117.24 681.89 115.72C682.53 114.2 682.97 112.68 683.21 111.16C683.53 109.56 683.81 108.32 684.05 107.44C684.53 105.12 685.05 102.56 685.61 99.76C686.25 96.88 686.85 93.92 687.41 90.88C688.05 87.76 688.65 84.6 689.21 81.4C689.85 78.2 690.45 75.08 691.01 72.04C692.37 65 693.69 57.72 694.97 50.2L713.21 49C713.21 49 713.01 50.04 712.61 52.12C712.21 54.2 711.69 56.96 711.05 60.4C710.41 63.84 709.69 67.76 708.89 72.16C708.17 76.56 707.33 81.16 706.37 85.96C705.41 90.68 704.45 95.36 703.49 100C702.61 104.56 701.73 108.76 700.85 112.6Z" fill="white"/>
<path d="M142.967 51.3445L169.259 4L110.256 11.875C65.3678 16.5163 38.9156 30.9542 31.3006 37.593C8.56638 57.4996 6.00054 90.3491 7.55941 104.286C11.7642 137.916 38.2511 156.75 50.969 161.963C80.7149 174.543 109.097 164.744 119.569 158.272C141.329 145.051 151.876 122.559 154.43 112.966C160.687 82.5489 149.396 59.2112 142.967 51.3445Z" fill="#D81F26" stroke="white" stroke-width="5"/>
<path d="M135.678 64.5693C128.838 70.1999 111.495 82.2671 96.8346 85.4916C104.861 101.964 145.481 105.732 135.678 64.5693Z" fill="white"/>
<path d="M27.3978 64.0469C34.1317 69.803 51.2491 82.1888 65.8473 85.6839C57.518 102.005 16.8345 105.022 27.3978 64.0469Z" fill="white"/>
<path d="M87.5939 90.7316C85.6906 88.5034 80.5748 85.3838 75.3384 90.7316C77.3809 92.8671 82.6917 95.8567 87.5939 90.7316Z" fill="white"/>
<path d="M37.1513 106.719L29.2808 122.295C28.4471 123.945 30.1062 125.746 31.8188 125.05L51.9753 116.859C53.2905 116.324 54.7283 117.292 54.7283 118.712V143.74C54.7283 145.55 56.9419 146.429 58.1837 145.112L79.7489 122.231C80.5525 121.378 81.9136 121.396 82.6948 122.269L102.924 144.877C104.148 146.245 106.414 145.379 106.414 143.543V118.645C106.414 117.243 107.818 116.276 109.128 116.776L131.666 125.383C133.314 126.012 134.91 124.356 134.221 122.732L127.419 106.719" stroke="white" stroke-width="5"/>
</svg>
