<svg width="716" height="136" viewBox="0 0 716 136" fill="none" xmlns="http://www.w3.org/2000/svg">
<path d="M183.763 95.193H157.12L153.161 106H138.181L169.746 30.137H170.816L202.488 106H187.936L183.763 95.193ZM179.804 84.814L171.993 64.484L170.174 58.492L168.462 64.484L160.972 84.814H179.804ZM236.983 51.43C242.297 51.43 246.292 53.1242 248.967 56.5125C251.678 59.8652 253.033 64.6267 253.033 70.797V106H239.337V71.974C239.337 68.9423 238.695 66.5348 237.411 64.7515C236.127 62.9325 234.237 62.023 231.74 62.023C230.064 62.023 228.494 62.451 227.032 63.307C225.605 64.163 224.464 65.3578 223.608 66.8915C222.752 68.3895 222.324 70.0837 222.324 71.974V106H208.628V52.714H221.04L221.307 59.7225C224.981 54.1942 230.206 51.43 236.983 51.43ZM267.969 29.816H282.949V44.047H267.969V29.816ZM268.504 52.714H282.414V106H268.504V52.714ZM357.665 51.43C362.908 51.43 366.867 53.1242 369.542 56.5125C372.252 59.8652 373.608 64.6267 373.608 70.797V106H360.019V72.188C360.019 69.085 359.412 66.6597 358.2 64.912C357.023 63.1287 355.204 62.237 352.743 62.237C351.066 62.237 349.461 62.665 347.928 63.521C346.43 64.377 345.217 65.5718 344.29 67.1055C343.362 68.6035 342.899 70.2977 342.899 72.188V106H329.203V72.188C329.203 69.1563 328.525 66.7132 327.17 64.8585C325.85 62.9682 323.96 62.023 321.499 62.023C319.787 62.023 318.217 62.4688 316.791 63.3605C315.364 64.2165 314.223 65.4292 313.367 66.9985C312.511 68.5322 312.083 70.262 312.083 72.188V106H298.387V52.714H310.692L311.013 59.776C314.615 54.212 319.858 51.43 326.742 51.43C330.308 51.43 333.287 52.2147 335.676 53.784C338.102 55.3533 339.921 57.636 341.133 60.632C344.771 54.4973 350.282 51.43 357.665 51.43ZM410.595 107.391C404.853 107.391 400.109 106.178 396.364 103.753C392.619 101.292 389.873 98.0107 388.125 93.909C386.413 89.8073 385.557 85.1707 385.557 79.999C385.557 74.7203 386.52 69.9232 388.446 65.6075C390.408 61.2562 393.261 57.8143 397.006 55.282C400.751 52.714 405.21 51.43 410.381 51.43C418.085 51.43 423.596 53.6592 426.913 58.1175C430.23 62.5402 431.888 69.1563 431.888 77.966C431.888 79.678 431.817 81.604 431.674 83.744H399.574C399.788 88.0597 400.983 91.3945 403.159 93.7485C405.37 96.0668 408.598 97.226 412.842 97.226C415.054 97.226 417.426 96.7445 419.958 95.7815C422.49 94.7828 424.363 93.588 425.575 92.197L429.855 102.362C424.826 105.715 418.406 107.391 410.595 107.391ZM418.299 75.398C418.299 70.155 417.64 66.5527 416.32 64.591C415.036 62.5937 413.163 61.595 410.702 61.595C407.243 61.595 404.55 62.879 402.624 65.447C400.734 68.015 399.681 71.332 399.467 75.398H418.299ZM459.019 106.963C453.918 106.963 449.906 106.339 446.981 105.09C444.092 103.806 442.041 102.433 440.829 100.971L444.788 90.806C449.353 94.5867 454.204 96.477 459.34 96.477C461.658 96.477 463.37 96.0133 464.476 95.086C465.617 94.123 466.188 92.946 466.188 91.555C466.188 90.057 465.207 88.6838 463.245 87.4355C461.319 86.1515 458.448 84.6713 454.632 82.995C452.171 81.925 450.031 80.8015 448.212 79.6245C446.393 78.4475 444.806 76.8603 443.45 74.863C442.131 72.83 441.471 70.369 441.471 67.48C441.471 64.27 442.255 61.4702 443.825 59.0805C445.43 56.6908 447.748 54.854 450.78 53.57C453.811 52.286 457.449 51.644 461.694 51.644C464.226 51.644 466.598 51.9293 468.809 52.5C471.056 53.035 472.964 53.7127 474.534 54.533C476.103 55.3177 477.244 56.0667 477.958 56.78L474.32 66.41C472.679 65.1617 470.789 64.1095 468.649 63.2535C466.544 62.3618 464.369 61.916 462.122 61.916C459.447 61.916 457.556 62.2727 456.451 62.986C455.381 63.6637 454.846 64.805 454.846 66.41C454.846 68.015 455.63 69.3525 457.2 70.4225C458.805 71.4925 461.266 72.6873 464.583 74.007C469.362 75.8973 473.036 78.1443 475.604 80.748C478.172 83.316 479.456 86.4547 479.456 90.164C479.456 93.267 478.742 96.0847 477.316 98.617C475.925 101.114 473.696 103.129 470.628 104.662C467.597 106.196 463.727 106.963 459.019 106.963Z" fill="#EE202A"/>
<path d="M546.387 65.982C546.815 70.4047 547.029 73.8643 547.029 76.361C547.029 85.8483 544.96 93.481 540.823 99.259C536.686 105.037 529.231 107.926 518.46 107.926C512.468 107.926 507.1 106.339 502.356 103.164C497.648 99.9902 493.939 95.407 491.228 89.415C488.553 83.3873 487.216 76.254 487.216 68.015C487.216 60.7033 488.625 54.1763 491.442 48.434C494.26 42.6917 498.166 38.2155 503.159 35.0055C508.188 31.7598 513.895 30.137 520.279 30.137C524.63 30.137 528.233 30.4758 531.086 31.1535C533.975 31.8312 536.204 32.6337 537.773 33.561C539.343 34.4883 540.752 35.5583 542 36.771L536.115 48.648C533.155 44.7247 527.947 42.763 520.493 42.763C516.926 42.763 513.698 43.8152 510.809 45.9195C507.92 48.0238 505.656 50.9663 504.015 54.747C502.374 58.5277 501.554 62.8433 501.554 67.694C501.554 73.5433 502.249 78.608 503.64 82.888C505.067 87.1323 507.064 90.378 509.632 92.625C512.236 94.8363 515.25 95.942 518.674 95.942C524.06 95.942 527.929 94.6758 530.283 92.1435C532.673 89.6112 533.868 85.777 533.868 80.641C533.868 80.0703 533.832 79.1073 533.761 77.752H518.46V65.982H546.387ZM579.654 107.07C574.446 107.07 570.006 105.964 566.332 103.753C562.659 101.542 559.859 98.3673 557.933 94.23C556.007 90.057 555.044 85.0637 555.044 79.25C555.044 73.4363 556.025 68.443 557.986 64.27C559.984 60.097 562.855 56.9227 566.6 54.747C570.38 52.5357 574.874 51.43 580.082 51.43C585.253 51.43 589.64 52.5713 593.243 54.854C596.881 57.101 599.627 60.311 601.482 64.484C603.336 68.657 604.264 73.579 604.264 79.25C604.264 84.8853 603.301 89.8073 601.375 94.016C599.449 98.189 596.631 101.417 592.922 103.699C589.248 105.947 584.825 107.07 579.654 107.07ZM579.868 96.37C583.185 96.37 585.699 94.9255 587.411 92.0365C589.159 89.1475 590.033 84.8853 590.033 79.25C590.033 73.579 589.159 69.299 587.411 66.41C585.699 63.4853 583.185 62.023 579.868 62.023C576.372 62.023 573.733 63.3962 571.95 66.1425C570.166 68.8888 569.275 73.258 569.275 79.25C569.275 85.242 570.166 89.5933 571.95 92.304C573.733 95.0147 576.372 96.37 579.868 96.37ZM630.794 96.263H652.729V106H610.143L634.271 62.879H614.637V52.714H654.869L630.794 96.263ZM706.479 52.714V106H694.388L694.12 99.0985C692.551 101.559 690.607 103.539 688.289 105.037C686.006 106.535 683.082 107.284 679.515 107.284C674.236 107.284 670.295 105.608 667.691 102.255C665.088 98.9023 663.786 94.123 663.786 87.917V52.714H677.161V86.74C677.161 89.843 677.714 92.2862 678.819 94.0695C679.961 95.8172 681.762 96.691 684.223 96.691C685.899 96.691 687.397 96.2808 688.717 95.4605C690.072 94.6045 691.142 93.4275 691.927 91.9295C692.712 90.3958 693.104 88.666 693.104 86.74V52.714H706.479Z" fill="white"/>
<path d="M44.7407 15.5558V22.05C14.2936 33.5281 7.89007 62.2736 8.49418 75.2116C10.9106 103.846 30.1414 118.657 39.4548 122.483C67.3646 133.478 87.9346 123.842 94.7308 117.65C113.337 105.116 117.788 81.7189 117.687 71.587C115.754 40.8982 94.7308 27.9401 82.7996 22.05V15.5558C115.301 27.638 123.829 57.9442 124.03 71.587C124.151 98.6511 107.065 117.399 98.5065 123.389C75.5503 138.975 48.164 133.71 37.3404 129.128C9.43055 113.905 2.15103 86.8407 2 75.2116C3.20822 36.0653 30.9973 19.1301 44.7407 15.5558Z" fill="white" stroke="white" stroke-width="3"/>
<path d="M69.9581 70.9322C63.0307 72.1235 64.0048 54.1016 65.3579 44.9418C62.6518 48.0823 59.2693 57.2602 59.2693 57.2602C59.2693 57.2602 56.0221 66.1944 56.0221 74.8579C56.0221 83.5213 58.1869 85.7323 59.2693 87.447C62.1918 92.6451 60.1262 92.3202 58.7281 91.508C57.9704 91.0748 55.8868 88.6202 54.9397 87.447C52.0172 82.8987 50.9258 76.0762 50.7454 73.2335C50.3124 68.6851 52.6396 60.9602 53.8573 57.6663C56.3468 52.9014 61.9753 41.2869 63.7342 35.3307C65.4932 29.3746 64.4559 20.7111 63.7342 17.5977C61.5694 8.79885 57.781 2.75246 55.075 0C56.1574 1.19123 57.1496 4.73784 57.5104 6.36224C59.134 14.5925 57.8261 21.0721 56.9692 23.2831C53.722 30.5388 48.31 38.1283 46.0099 41.0162C36.3765 52.9284 31.1719 65.1115 29.7738 69.7139C26.5266 77.8359 28.06 89.3421 29.2326 94.08C31.1809 102.202 35.1858 106.534 41.6802 112.49C48.1747 118.446 58.273 121.559 70.4992 119.664C85.5176 115.603 92.2841 104.639 93.771 102.067C95.2578 99.4946 98.5065 92.0495 98.5065 86.6348C98.5065 81.2201 97.5594 77.1591 96.8829 75.1286C96.2063 73.0981 88.6295 59.6517 85.247 55.365C81.8916 51.2499 76.6329 38.4893 74.423 32.6234C72.6911 26.9922 72.4386 19.538 72.5288 16.5148C68.3074 28.7519 69.5972 40.5649 70.7698 44.9418C77.156 65.5176 72.8896 70.842 69.9581 70.9322Z" fill="#D81F26"/>
</svg>
