<svg width="828" height="175" viewBox="0 0 828 175" fill="none" xmlns="http://www.w3.org/2000/svg">
<path d="M232.08 124.88H202.2L197.76 137H180.96L216.36 51.92H217.56L253.08 137H236.76L232.08 124.88ZM227.64 113.24L218.88 90.44L216.84 83.72L214.92 90.44L206.52 113.24H227.64ZM291.766 75.8C297.726 75.8 302.206 77.7 305.206 81.5C308.246 85.26 309.766 90.6 309.766 97.52V137H294.406V98.84C294.406 95.44 293.686 92.74 292.246 90.74C290.806 88.7 288.686 87.68 285.886 87.68C284.006 87.68 282.246 88.16 280.606 89.12C279.006 90.08 277.726 91.42 276.766 93.14C275.806 94.82 275.326 96.72 275.326 98.84V137H259.966V77.24H273.886L274.186 85.1C278.306 78.9 284.166 75.8 291.766 75.8ZM326.517 51.56H343.317V67.52H326.517V51.56ZM327.117 77.24H342.717V137H327.117V77.24ZM427.11 75.8C432.99 75.8 437.43 77.7 440.43 81.5C443.47 85.26 444.99 90.6 444.99 97.52V137H429.75V99.08C429.75 95.6 429.07 92.88 427.71 90.92C426.39 88.92 424.35 87.92 421.59 87.92C419.71 87.92 417.91 88.4 416.19 89.36C414.51 90.32 413.15 91.66 412.11 93.38C411.07 95.06 410.55 96.96 410.55 99.08V137H395.19V99.08C395.19 95.68 394.43 92.94 392.91 90.86C391.43 88.74 389.31 87.68 386.55 87.68C384.63 87.68 382.87 88.18 381.27 89.18C379.67 90.14 378.39 91.5 377.43 93.26C376.47 94.98 375.99 96.92 375.99 99.08V137H360.63V77.24H374.43L374.79 85.16C378.83 78.92 384.71 75.8 392.43 75.8C396.43 75.8 399.77 76.68 402.45 78.44C405.17 80.2 407.21 82.76 408.57 86.12C412.65 79.24 418.83 75.8 427.11 75.8ZM486.472 138.56C480.032 138.56 474.712 137.2 470.512 134.48C466.312 131.72 463.232 128.04 461.272 123.44C459.352 118.84 458.392 113.64 458.392 107.84C458.392 101.92 459.472 96.54 461.632 91.7C463.832 86.82 467.032 82.96 471.232 80.12C475.432 77.24 480.432 75.8 486.232 75.8C494.872 75.8 501.052 78.3 504.772 83.3C508.492 88.26 510.352 95.68 510.352 105.56C510.352 107.48 510.272 109.64 510.112 112.04H474.112C474.352 116.88 475.692 120.62 478.132 123.26C480.612 125.86 484.232 127.16 488.992 127.16C491.472 127.16 494.132 126.62 496.972 125.54C499.812 124.42 501.912 123.08 503.272 121.52L508.072 132.92C502.432 136.68 495.232 138.56 486.472 138.56ZM495.112 102.68C495.112 96.8 494.372 92.76 492.892 90.56C491.452 88.32 489.352 87.2 486.592 87.2C482.712 87.2 479.692 88.64 477.532 91.52C475.412 94.4 474.232 98.12 473.992 102.68H495.112ZM540.778 138.08C535.058 138.08 530.558 137.38 527.278 135.98C524.038 134.54 521.738 133 520.378 131.36L524.818 119.96C529.938 124.2 535.378 126.32 541.138 126.32C543.738 126.32 545.658 125.8 546.898 124.76C548.178 123.68 548.818 122.36 548.818 120.8C548.818 119.12 547.718 117.58 545.518 116.18C543.358 114.74 540.138 113.08 535.858 111.2C533.098 110 530.698 108.74 528.658 107.42C526.618 106.1 524.838 104.32 523.318 102.08C521.838 99.8 521.098 97.04 521.098 93.8C521.098 90.2 521.978 87.06 523.738 84.38C525.538 81.7 528.138 79.64 531.538 78.2C534.938 76.76 539.018 76.04 543.778 76.04C546.618 76.04 549.278 76.36 551.758 77C554.278 77.6 556.418 78.36 558.178 79.28C559.938 80.16 561.218 81 562.018 81.8L557.938 92.6C556.098 91.2 553.978 90.02 551.578 89.06C549.218 88.06 546.778 87.56 544.258 87.56C541.258 87.56 539.138 87.96 537.898 88.76C536.698 89.52 536.098 90.8 536.098 92.6C536.098 94.4 536.978 95.9 538.738 97.1C540.538 98.3 543.298 99.64 547.018 101.12C552.378 103.24 556.498 105.76 559.378 108.68C562.258 111.56 563.698 115.08 563.698 119.24C563.698 122.72 562.898 125.88 561.298 128.72C559.738 131.52 557.238 133.78 553.798 135.5C550.398 137.22 546.058 138.08 540.778 138.08Z" fill="#EE202A"/>
<path d="M638.761 92.12C639.241 97.08 639.481 100.96 639.481 103.76C639.481 114.4 637.161 122.96 632.521 129.44C627.881 135.92 619.521 139.16 607.441 139.16C600.721 139.16 594.701 137.38 589.381 133.82C584.101 130.26 579.941 125.12 576.901 118.4C573.901 111.64 572.401 103.64 572.401 94.4C572.401 86.2 573.981 78.88 577.141 72.44C580.301 66 584.681 60.98 590.281 57.38C595.921 53.74 602.321 51.92 609.481 51.92C614.361 51.92 618.401 52.3 621.601 53.06C624.841 53.82 627.341 54.72 629.101 55.76C630.861 56.8 632.441 58 633.841 59.36L627.241 72.68C623.921 68.28 618.081 66.08 609.721 66.08C605.721 66.08 602.101 67.26 598.861 69.62C595.621 71.98 593.081 75.28 591.241 79.52C589.401 83.76 588.481 88.6 588.481 94.04C588.481 100.6 589.261 106.28 590.821 111.08C592.421 115.84 594.661 119.48 597.541 122C600.461 124.48 603.841 125.72 607.681 125.72C613.721 125.72 618.061 124.3 620.701 121.46C623.381 118.62 624.721 114.32 624.721 108.56C624.721 107.92 624.681 106.84 624.601 105.32H607.441V92.12H638.761ZM676.07 138.2C670.23 138.2 665.25 136.96 661.13 134.48C657.01 132 653.87 128.44 651.71 123.8C649.55 119.12 648.47 113.52 648.47 107C648.47 100.48 649.57 94.88 651.77 90.2C654.01 85.52 657.23 81.96 661.43 79.52C665.67 77.04 670.71 75.8 676.55 75.8C682.35 75.8 687.27 77.08 691.31 79.64C695.39 82.16 698.47 85.76 700.55 90.44C702.63 95.12 703.67 100.64 703.67 107C703.67 113.32 702.59 118.84 700.43 123.56C698.27 128.24 695.11 131.86 690.95 134.42C686.83 136.94 681.87 138.2 676.07 138.2ZM676.31 126.2C680.03 126.2 682.85 124.58 684.77 121.34C686.73 118.1 687.71 113.32 687.71 107C687.71 100.64 686.73 95.84 684.77 92.6C682.85 89.32 680.03 87.68 676.31 87.68C672.39 87.68 669.43 89.22 667.43 92.3C665.43 95.38 664.43 100.28 664.43 107C664.43 113.72 665.43 118.6 667.43 121.64C669.43 124.68 672.39 126.2 676.31 126.2ZM733.423 126.08H758.023V137H710.263L737.323 88.64H715.303V77.24H760.423L733.423 126.08ZM818.303 77.24V137H804.743L804.443 129.26C802.683 132.02 800.503 134.24 797.903 135.92C795.343 137.6 792.063 138.44 788.063 138.44C782.143 138.44 777.723 136.56 774.803 132.8C771.883 129.04 770.423 123.68 770.423 116.72V77.24H785.423V115.4C785.423 118.88 786.043 121.62 787.283 123.62C788.563 125.58 790.583 126.56 793.343 126.56C795.223 126.56 796.903 126.1 798.383 125.18C799.903 124.22 801.103 122.9 801.983 121.22C802.863 119.5 803.303 117.56 803.303 115.4V77.24H818.303Z" fill="white"/>
<path d="M142.967 51.3445L169.259 4L110.256 11.875C65.3678 16.5163 38.9156 30.9542 31.3006 37.593C8.56638 57.4996 6.00054 90.3491 7.55941 104.286C11.7642 137.916 38.2511 156.75 50.969 161.963C80.7149 174.543 109.097 164.744 119.569 158.272C141.329 145.051 151.876 122.559 154.43 112.966C160.687 82.5489 149.396 59.2112 142.967 51.3445Z" fill="#D81F26" stroke="white" stroke-width="5"/>
<path d="M135.678 64.5693C128.838 70.1999 111.495 82.2671 96.8346 85.4916C104.861 101.964 145.481 105.732 135.678 64.5693Z" fill="white"/>
<path d="M27.3978 64.0469C34.1317 69.803 51.2491 82.1888 65.8473 85.6839C57.518 102.005 16.8345 105.022 27.3978 64.0469Z" fill="white"/>
<path d="M87.5939 90.7316C85.6906 88.5034 80.5748 85.3838 75.3384 90.7316C77.3809 92.8671 82.6917 95.8567 87.5939 90.7316Z" fill="white"/>
<path d="M37.1513 106.719L29.2808 122.295C28.4471 123.945 30.1062 125.746 31.8188 125.05L51.9753 116.859C53.2905 116.324 54.7283 117.292 54.7283 118.712V143.74C54.7283 145.55 56.9419 146.429 58.1837 145.112L79.7489 122.231C80.5525 121.378 81.9136 121.396 82.6948 122.269L102.924 144.877C104.148 146.245 106.414 145.379 106.414 143.543V118.645C106.414 117.243 107.818 116.276 109.128 116.776L131.666 125.383C133.314 126.012 134.91 124.356 134.221 122.732L127.419 106.719" stroke="white" stroke-width="5"/>
</svg>
